<?xml version="1.0" encoding="UTF-8" standalone="no"?>
<!-- Created with Inkscape (http://www.inkscape.org/) -->

<svg
   width="30.48mm"
   height="128.5mm"
   viewBox="0 0 30.479999 128.5"
   version="1.1"
   id="svg1"
   sodipodi:docname="PatchbayIn.svg"
   inkscape:version="1.3.2 (091e20e, 2023-11-25)"
   xmlns:inkscape="http://www.inkscape.org/namespaces/inkscape"
   xmlns:sodipodi="http://sodipodi.sourceforge.net/DTD/sodipodi-0.dtd"
   xmlns="http://www.w3.org/2000/svg"
   xmlns:svg="http://www.w3.org/2000/svg">
  <sodipodi:namedview
     id="namedview1"
     pagecolor="#ffffff"
     bordercolor="#000000"
     borderopacity="0.25"
     inkscape:showpageshadow="2"
     inkscape:pageopacity="0.0"
     inkscape:pagecheckerboard="0"
     inkscape:deskcolor="#d1d1d1"
     inkscape:document-units="mm"
     showguides="true"
     inkscape:zoom="0.84096521"
     inkscape:cx="-2.9727746"
     inkscape:cy="269.33338"
     inkscape:window-width="1680"
     inkscape:window-height="944"
     inkscape:window-x="0"
     inkscape:window-y="25"
     inkscape:window-maximized="0"
     inkscape:current-layer="layer1">
    <sodipodi:guide
       position="0,128.5"
       orientation="0,189.27875"
       id="guide5"
       inkscape:locked="false" />
    <sodipodi:guide
       position="50.080004,128.5"
       orientation="485.66929,0"
       id="guide6"
       inkscape:locked="false" />
    <sodipodi:guide
       position="50.080004,0"
       orientation="0,-189.27875"
       id="guide7"
       inkscape:locked="false" />
    <sodipodi:guide
       position="0,0"
       orientation="-485.66929,0"
       id="guide8"
       inkscape:locked="false" />
  </sodipodi:namedview>
  <defs
     id="defs1" />
  <g
     inkscape:label="Background"
     inkscape:groupmode="layer"
     id="layer1"
     style="display:inline">
    <rect
       style="fill:#cccccc;stroke-width:0.196081"
       id="rect1"
       width="33.349575"
       height="132.13983"
       x="-1.2584745"
       y="-3.4608049" />
  </g>
  <g
     inkscape:groupmode="layer"
     id="layer2"
     inkscape:label="Labels"
     style="display:inline" />
  <g
     inkscape:groupmode="layer"
     id="layer4"
     inkscape:label="Logo"
     style="display:inline">
    <path
       d="m 21.061587,119.684 q 0,0.30386 -0.186035,0.46819 -0.184485,0.16433 -0.496094,0.16433 -0.07441,0 -0.198438,-0.014 -0.124023,-0.0124 -0.207739,-0.031 v -0.2868 h 0.01705 q 0.06356,0.0217 0.15658,0.045 0.09302,0.0233 0.190686,0.0233 0.142627,0 0.226343,-0.0326 0.08527,-0.0326 0.125573,-0.093 0.04186,-0.062 0.05271,-0.15193 0.0124,-0.0899 0.0124,-0.20774 v -1.34721 H 20.26628 v -0.24494 h 0.795301 z m 2.337842,-0.11007 q 0,0.17208 -0.06511,0.30386 -0.06511,0.13177 -0.175183,0.21704 -0.130224,0.10232 -0.286804,0.14572 -0.155029,0.0434 -0.395325,0.0434 h -0.818554 v -2.30838 h 0.683679 q 0.252698,0 0.378271,0.0186 0.125574,0.0186 0.240296,0.0775 0.127124,0.0667 0.184485,0.17209 0.05736,0.10387 0.05736,0.24959 0,0.16434 -0.08371,0.28061 -0.08372,0.11472 -0.223243,0.18448 v 0.0124 q 0.234095,0.0481 0.36897,0.20619 0.134876,0.15658 0.134876,0.39688 z m -0.516248,-1.04025 q 0,-0.0837 -0.02791,-0.14107 -0.02791,-0.0574 -0.08992,-0.093 -0.07286,-0.0419 -0.176734,-0.0512 -0.103869,-0.0109 -0.257348,-0.0109 H 21.9654 v 0.66662 h 0.396875 q 0.144177,0 0.229443,-0.0139 0.08527,-0.0155 0.15813,-0.062 0.07286,-0.0465 0.102319,-0.11937 0.03101,-0.0744 0.03101,-0.17519 z m 0.196887,1.05265 q 0,-0.13953 -0.04186,-0.22169 -0.04186,-0.0822 -0.151928,-0.13953 -0.07441,-0.0387 -0.181385,-0.0496 -0.10542,-0.0124 -0.257348,-0.0124 h -0.482139 v 0.85885 h 0.406176 q 0.201538,0 0.330213,-0.0202 0.128674,-0.0217 0.21084,-0.0775 0.08682,-0.0605 0.127124,-0.13797 0.04031,-0.0775 0.04031,-0.19999 z"
       id="text3"
       style="font-size:3.175px;fill:#ff8080;stroke-width:0.264583"
       aria-label="JB" />
  </g>
  <g
     inkscape:groupmode="layer"
     id="layer3"
     inkscape:label="Guides"
     style="display:inline" />
</svg>
