<?xml version="1.0" encoding="UTF-8" standalone="no"?>
<!-- Created with Inkscape (http://www.inkscape.org/) -->

<svg
   width="20.48mm"
   height="128.5mm"
   viewBox="0 0 20.479999 128.5"
   version="1.1"
   id="svg1"
   sodipodi:docname="PatchbayInsm.svg"
   inkscape:version="1.3.2 (091e20e, 2023-11-25)"
   xmlns:inkscape="http://www.inkscape.org/namespaces/inkscape"
   xmlns:sodipodi="http://sodipodi.sourceforge.net/DTD/sodipodi-0.dtd"
   xmlns="http://www.w3.org/2000/svg"
   xmlns:svg="http://www.w3.org/2000/svg">
  <sodipodi:namedview
     id="namedview1"
     pagecolor="#ffffff"
     bordercolor="#000000"
     borderopacity="0.25"
     inkscape:showpageshadow="2"
     inkscape:pageopacity="0.0"
     inkscape:pagecheckerboard="0"
     inkscape:deskcolor="#d1d1d1"
     inkscape:document-units="mm"
     showguides="true"
     inkscape:zoom="2.3786088"
     inkscape:cx="-40.78014"
     inkscape:cy="36.786209"
     inkscape:window-width="1680"
     inkscape:window-height="944"
     inkscape:window-x="0"
     inkscape:window-y="25"
     inkscape:window-maximized="0"
     inkscape:current-layer="layer4">
    <sodipodi:guide
       position="0,128.5"
       orientation="0,189.27875"
       id="guide5"
       inkscape:locked="false" />
    <sodipodi:guide
       position="50.080003,128.50001"
       orientation="485.66929,0"
       id="guide6"
       inkscape:locked="false" />
    <sodipodi:guide
       position="50.080003,5.3405761e-06"
       orientation="0,-189.27875"
       id="guide7"
       inkscape:locked="false" />
    <sodipodi:guide
       position="0,5.3405761e-06"
       orientation="-485.66929,0"
       id="guide8"
       inkscape:locked="false" />
  </sodipodi:namedview>
  <defs
     id="defs1" />
  <g
     inkscape:label="Background"
     inkscape:groupmode="layer"
     id="layer1"
     style="display:inline">
    <rect
       style="fill:#cccccc;stroke-width:0.161603"
       id="rect1"
       width="22.652542"
       height="132.13983"
       x="-0.94385606"
       y="-1.5730931"
       inkscape:label="rect1" />
  </g>
  <g
     inkscape:groupmode="layer"
     id="layer2"
     inkscape:label="Labels"
     style="display:none" />
  <g
     inkscape:groupmode="layer"
     id="layer4"
     inkscape:label="Logo"
     style="display:inline">
    <path
       d="m 16.38037,125.21601 q 0.15193,0.26315 0.07298,0.49849 -0.0776,0.23455 -0.347465,0.39036 -0.06444,0.0372 -0.178852,0.0871 -0.113607,0.0513 -0.195408,0.077 l -0.1434,-0.24837 0.01477,-0.009 q 0.0659,-0.013 0.158102,-0.0393 0.09221,-0.0263 0.176789,-0.0752 0.123519,-0.0713 0.179719,-0.1414 0.05755,-0.0709 0.06225,-0.14333 0.0053,-0.0746 -0.03032,-0.15793 -0.03421,-0.0841 -0.09313,-0.18611 l -0.673605,-1.16672 -0.422917,0.24417 -0.12247,-0.21212 0.688751,-0.39765 z m 1.969596,-1.26424 q 0.08604,0.14902 0.09554,0.2957 0.0095,0.14668 -0.04319,0.27556 -0.06162,0.15372 -0.17552,0.2696 -0.112559,0.1151 -0.320661,0.23525 l -0.708889,0.40927 -1.15419,-1.99911 0.592084,-0.34184 q 0.218842,-0.12635 0.336892,-0.17303 0.11805,-0.0467 0.246852,-0.053 0.143443,-0.006 0.245814,0.0568 0.10161,0.0613 0.17447,0.18747 0.08217,0.14232 0.06781,0.28487 -0.01514,0.14121 -0.101094,0.27139 l 0.0062,0.0107 q 0.226782,-0.0754 0.422633,-0.006 0.195096,0.0682 0.315246,0.27627 z m -0.967209,-0.64276 q -0.04185,-0.0725 -0.09471,-0.10821 -0.05287,-0.0358 -0.124373,-0.0356 -0.08405,1.5e-4 -0.178656,0.044 -0.0954,0.0425 -0.22832,0.11924 l -0.316852,0.18293 0.33331,0.57731 0.343704,-0.19844 q 0.124861,-0.0721 0.191753,-0.12676 0.0661,-0.0561 0.105945,-0.13276 0.03985,-0.0767 0.02893,-0.15453 -0.01035,-0.0799 -0.06074,-0.16723 z m 0.696834,0.81318 q -0.06977,-0.12084 -0.147097,-0.17106 -0.07735,-0.0503 -0.201338,-0.0449 -0.08379,0.004 -0.181884,0.0477 -0.0975,0.042 -0.22907,0.11794 l -0.417545,0.24107 0.429425,0.74379 0.351759,-0.20309 q 0.174537,-0.10077 0.275873,-0.1826 0.100585,-0.0831 0.143842,-0.17254 0.04494,-0.0958 0.04111,-0.18305 -0.0038,-0.0873 -0.06509,-0.19335 z"
       id="text3"
       style="font-size:3.175px;display:inline;fill:#7b78a6;fill-opacity:1;stroke-width:0.264583"
       aria-label="JB" />
  </g>
  <g
     inkscape:groupmode="layer"
     id="layer3"
     inkscape:label="Guides"
     style="display:none" />
</svg>
