<?xml version="1.0" encoding="UTF-8" standalone="no"?>
<!-- Created with Inkscape (http://www.inkscape.org/) -->

<svg
   width="20.48mm"
   height="128.5mm"
   viewBox="0 0 20.479999 128.5"
   version="1.1"
   id="svg1"
   sodipodi:docname="PatchbayInsm2.svg"
   inkscape:version="1.3.2 (091e20e, 2023-11-25)"
   xmlns:inkscape="http://www.inkscape.org/namespaces/inkscape"
   xmlns:sodipodi="http://sodipodi.sourceforge.net/DTD/sodipodi-0.dtd"
   xmlns="http://www.w3.org/2000/svg"
   xmlns:svg="http://www.w3.org/2000/svg">
  <sodipodi:namedview
     id="namedview1"
     pagecolor="#ffffff"
     bordercolor="#000000"
     borderopacity="0.25"
     inkscape:showpageshadow="2"
     inkscape:pageopacity="0.0"
     inkscape:pagecheckerboard="0"
     inkscape:deskcolor="#d1d1d1"
     inkscape:document-units="mm"
     showguides="true"
     inkscape:zoom="2.3786088"
     inkscape:cx="-43.302623"
     inkscape:cy="35.104553"
     inkscape:window-width="1680"
     inkscape:window-height="944"
     inkscape:window-x="0"
     inkscape:window-y="25"
     inkscape:window-maximized="0"
     inkscape:current-layer="layer2">
    <sodipodi:guide
       position="0,128.5"
       orientation="0,189.27875"
       id="guide5"
       inkscape:locked="false" />
    <sodipodi:guide
       position="50.080003,128.50001"
       orientation="485.66929,0"
       id="guide6"
       inkscape:locked="false" />
    <sodipodi:guide
       position="50.080003,5.3405761e-06"
       orientation="0,-189.27875"
       id="guide7"
       inkscape:locked="false" />
    <sodipodi:guide
       position="0,5.3405761e-06"
       orientation="-485.66929,0"
       id="guide8"
       inkscape:locked="false" />
  </sodipodi:namedview>
  <defs
     id="defs1" />
  <g
     inkscape:label="Background"
     inkscape:groupmode="layer"
     id="layer1"
     style="display:inline">
    <rect
       style="fill:#cccccc;stroke-width:0.161603"
       id="rect1"
       width="22.652542"
       height="132.13983"
       x="-0.94385606"
       y="-1.5730931"
       inkscape:label="rect1" />
  </g>
  <g
     inkscape:groupmode="layer"
     id="layer2"
     inkscape:label="Labels"
     style="display:inline">
    <path
       style="-inkscape-font-specification:Futura;fill:#1a1a1a;stroke-width:0.264583"
       d="M 4.1805203,4.7311423 V 5.703176 H 3.8193021 V 3.3095237 h 0.4092773 q 0.3007568,0 0.4542358,0.041858 0.1550293,0.041858 0.2728516,0.1581299 0.206189,0.2015381 0.206189,0.5084961 0,0.3286621 -0.2201416,0.5208984 Q 4.7215726,4.7311423 4.347952,4.7311423 Z m 0,-0.3348632 h 0.1348755 q 0.4976441,0 0.4976441,-0.3829224 0,-0.37052 -0.513147,-0.37052 H 4.1805203 Z M 6.4951077,4.1931907 H 6.845474 V 5.703176 H 6.4951077 V 5.5450461 Q 6.279617,5.7465842 6.0315702,5.7465842 q -0.3131592,0 -0.5177979,-0.2263427 -0.2030884,-0.2309937 -0.2030884,-0.576709 0,-0.3395142 0.2030884,-0.5658569 0.2030884,-0.2263428 0.5084961,-0.2263428 0.2635498,0 0.4728393,0.217041 z M 5.6672513,4.9435325 q 0,0.217041 0.116272,0.3534668 0.1193725,0.137976 0.3007568,0.137976 0.1937866,0 0.3131592,-0.1333252 0.1193726,-0.137976 0.1193726,-0.3503662 0,-0.2123901 -0.1193726,-0.3503662 -0.1193726,-0.1348754 -0.3100586,-0.1348754 -0.179834,0 -0.3007568,0.1364257 Q 5.6672513,4.7404441 5.6672513,4.9435325 Z M 7.6454252,4.5187522 V 5.703176 H 7.2966093 V 4.5187522 H 7.1477812 V 4.1931907 H 7.2966093 V 3.6397361 H 7.6454252 V 4.1931907 H 7.9167265 V 4.5187522 Z M 9.3290434,4.258303 V 4.7218406 Q 9.2096708,4.5761131 9.1151029,4.5218528 q -0.093018,-0.05581 -0.2185913,-0.05581 -0.1968872,0 -0.3271118,0.137976 -0.1302246,0.1379761 -0.1302246,0.3457154 0,0.2123901 0.1255737,0.3488159 0.1271241,0.1364257 0.3240113,0.1364257 0.1255737,0 0.2216919,-0.05426 0.093018,-0.05271 0.2185913,-0.2046387 v 0.460437 q -0.2123902,0.1100708 -0.4247803,0.1100708 -0.3503662,0 -0.5860107,-0.2263427 -0.2356446,-0.2278931 -0.2356446,-0.565857 0,-0.3379638 0.2387452,-0.5705078 0.2387451,-0.2325439 0.5860107,-0.2325439 0.2232422,0 0.4216797,0.1069702 z M 9.7491729,3.0847312 h 0.3488161 v 1.2340332 q 0.186035,-0.1674316 0.410827,-0.1674316 0.255799,0 0.409278,0.1658813 0.130224,0.1441773 0.130224,0.460437 V 5.703176 H 10.699502 V 4.8102073 q 0,-0.1813843 -0.06511,-0.2619995 -0.06356,-0.082166 -0.206189,-0.082166 -0.182934,0 -0.257348,0.1131713 -0.07286,0.1147217 -0.07286,0.3937744 V 5.703176 H 9.7491729 Z m 2.0897951,0 v 1.2836426 q 0.209289,-0.217041 0.474389,-0.217041 0.305408,0 0.508496,0.227893 0.203089,0.2263428 0.203089,0.5643067 0,0.3488159 -0.204639,0.576709 -0.203088,0.2263427 -0.513147,0.2263427 -0.262,0 -0.468188,-0.2015381 V 5.703176 H 11.490152 V 3.0847312 Z m 0.829406,1.8743042 q 0,-0.217041 -0.117822,-0.3534668 -0.119373,-0.1395263 -0.299207,-0.1395263 -0.192236,0 -0.313159,0.1348754 -0.119372,0.1333252 -0.119372,0.3472657 0,0.2201416 0.117822,0.3519165 0.117822,0.1348754 0.310059,0.1348754 0.181384,0 0.300756,-0.1348754 0.120923,-0.1364258 0.120923,-0.3410645 z m 1.838647,-0.7658447 h 0.350367 V 5.703176 H 14.507021 V 5.5450461 q -0.21549,0.2015381 -0.463537,0.2015381 -0.313159,0 -0.517798,-0.2263427 -0.203088,-0.2309937 -0.203088,-0.576709 0,-0.3395142 0.203088,-0.5658569 0.203088,-0.2263428 0.508496,-0.2263428 0.26355,0 0.472839,0.217041 z m -0.827856,0.7503418 q 0,0.217041 0.116272,0.3534668 0.119373,0.137976 0.300757,0.137976 0.193786,0 0.313159,-0.1333252 0.119373,-0.137976 0.119373,-0.3503662 0,-0.2123901 -0.119373,-0.3503662 -0.119373,-0.1348754 -0.310059,-0.1348754 -0.179834,0 -0.300756,0.1364257 -0.119373,0.1379761 -0.119373,0.3410645 z M 15.801516,5.422573 15.122488,4.1931907 h 0.404627 l 0.461987,0.868164 0.430981,-0.868164 h 0.393775 L 15.61083,6.5248313 h -0.398425 z"
       id="text1"
       aria-label="Patchbay" />
  </g>
  <g
     inkscape:groupmode="layer"
     id="layer4"
     inkscape:label="Logo"
     style="display:inline">
    <path
       d="m 16.38037,125.21601 q 0.15193,0.26315 0.07298,0.49849 -0.0776,0.23455 -0.347465,0.39036 -0.06444,0.0372 -0.178852,0.0871 -0.113607,0.0513 -0.195408,0.077 l -0.1434,-0.24837 0.01477,-0.009 q 0.0659,-0.013 0.158102,-0.0393 0.09221,-0.0263 0.176789,-0.0752 0.123519,-0.0713 0.179719,-0.1414 0.05755,-0.0709 0.06225,-0.14333 0.0053,-0.0746 -0.03032,-0.15793 -0.03421,-0.0841 -0.09313,-0.18611 l -0.673605,-1.16672 -0.422917,0.24417 -0.12247,-0.21212 0.688751,-0.39765 z m 1.969596,-1.26424 q 0.08604,0.14902 0.09554,0.2957 0.0095,0.14668 -0.04319,0.27556 -0.06162,0.15372 -0.17552,0.2696 -0.112559,0.1151 -0.320661,0.23525 l -0.708889,0.40927 -1.15419,-1.99911 0.592084,-0.34184 q 0.218842,-0.12635 0.336892,-0.17303 0.11805,-0.0467 0.246852,-0.053 0.143443,-0.006 0.245814,0.0568 0.10161,0.0613 0.17447,0.18747 0.08217,0.14232 0.06781,0.28487 -0.01514,0.14121 -0.101094,0.27139 l 0.0062,0.0107 q 0.226782,-0.0754 0.422633,-0.006 0.195096,0.0682 0.315246,0.27627 z m -0.967209,-0.64276 q -0.04185,-0.0725 -0.09471,-0.10821 -0.05287,-0.0358 -0.124373,-0.0356 -0.08405,1.5e-4 -0.178656,0.044 -0.0954,0.0425 -0.22832,0.11924 l -0.316852,0.18293 0.33331,0.57731 0.343704,-0.19844 q 0.124861,-0.0721 0.191753,-0.12676 0.0661,-0.0561 0.105945,-0.13276 0.03985,-0.0767 0.02893,-0.15453 -0.01035,-0.0799 -0.06074,-0.16723 z m 0.696834,0.81318 q -0.06977,-0.12084 -0.147097,-0.17106 -0.07735,-0.0503 -0.201338,-0.0449 -0.08379,0.004 -0.181884,0.0477 -0.0975,0.042 -0.22907,0.11794 l -0.417545,0.24107 0.429425,0.74379 0.351759,-0.20309 q 0.174537,-0.10077 0.275873,-0.1826 0.100585,-0.0831 0.143842,-0.17254 0.04494,-0.0958 0.04111,-0.18305 -0.0038,-0.0873 -0.06509,-0.19335 z"
       id="text3"
       style="font-size:3.175px;display:inline;fill:#7b78a6;fill-opacity:1;stroke-width:0.264583"
       aria-label="JB" />
  </g>
  <g
     inkscape:groupmode="layer"
     id="layer3"
     inkscape:label="Guides"
     style="display:none" />
</svg>
