<?xml version="1.0" encoding="UTF-8" standalone="no"?>
<!-- Created with Inkscape (http://www.inkscape.org/) -->

<svg
   width="20.48mm"
   height="128.5mm"
   viewBox="0 0 20.479999 128.5"
   version="1.1"
   id="svg1"
   sodipodi:docname="PatchbayOut2.svg"
   inkscape:version="1.3.2 (091e20e, 2023-11-25)"
   xmlns:inkscape="http://www.inkscape.org/namespaces/inkscape"
   xmlns:sodipodi="http://sodipodi.sourceforge.net/DTD/sodipodi-0.dtd"
   xmlns="http://www.w3.org/2000/svg"
   xmlns:svg="http://www.w3.org/2000/svg">
  <sodipodi:namedview
     id="namedview1"
     pagecolor="#ffffff"
     bordercolor="#000000"
     borderopacity="0.25"
     inkscape:showpageshadow="2"
     inkscape:pageopacity="0.0"
     inkscape:pagecheckerboard="0"
     inkscape:deskcolor="#d1d1d1"
     inkscape:document-units="mm"
     showguides="true"
     inkscape:zoom="1.6819304"
     inkscape:cx="32.105965"
     inkscape:cy="25.863139"
     inkscape:window-width="1680"
     inkscape:window-height="944"
     inkscape:window-x="0"
     inkscape:window-y="25"
     inkscape:window-maximized="0"
     inkscape:current-layer="layer2">
    <sodipodi:guide
       position="0,128.5"
       orientation="0,189.27875"
       id="guide5"
       inkscape:locked="false" />
    <sodipodi:guide
       position="50.080003,128.50001"
       orientation="485.66929,0"
       id="guide6"
       inkscape:locked="false" />
    <sodipodi:guide
       position="50.080003,5.3405761e-06"
       orientation="0,-189.27875"
       id="guide7"
       inkscape:locked="false" />
    <sodipodi:guide
       position="0,5.3405761e-06"
       orientation="-485.66929,0"
       id="guide8"
       inkscape:locked="false" />
  </sodipodi:namedview>
  <defs
     id="defs1">
    <rect
       x="16.647538"
       y="17.53937"
       width="41.618844"
       height="32.997798"
       id="rect14" />
  </defs>
  <g
     inkscape:label="Background"
     inkscape:groupmode="layer"
     id="layer1"
     style="display:inline">
    <rect
       style="fill:#cccccc;stroke-width:0.161603"
       id="rect1"
       width="22.652542"
       height="132.13983"
       x="-0.94385606"
       y="-1.5730931"
       inkscape:label="rect1" />
  </g>
  <g
     inkscape:groupmode="layer"
     id="layer2"
     inkscape:label="PB-I Label"
     style="display:none"
     transform="translate(2.2346486,1.0583333)">
    <path
       style="-inkscape-font-specification:'Futura Bold';fill:#b3b3b3;stroke-width:1.62882;stroke-linecap:round;stroke-linejoin:round;stroke-dashoffset:0.604724;paint-order:stroke fill markers"
       d="m 4.3569678,3.7936655 h 0.2851681 q 0.4738177,0 0.4738177,-0.397933 0,-0.397933 -0.4738177,-0.397933 H 4.3569678 Z m 0,1.7271986 H 3.4970764 V 2.3289334 h 1.3688067 q 0.5571745,0 0.851117,0.2793998 0.2983296,0.2793998 0.2983296,0.7873993 0,0.5079996 -0.2983296,0.7873994 -0.2939425,0.2793997 -0.851117,0.2793997 H 4.3569678 Z M 7.3314874,4.8773979 h 0.1886502 q 0.3246525,0 0.4650415,-0.080433 0.140391,-0.080433 0.140391,-0.2582331 0,-0.1777999 -0.140391,-0.2582332 -0.140389,-0.080433 -0.4650415,-0.080433 H 7.3314874 Z m 0,-1.2953989 h 0.157939 q 0.4036237,0 0.4036237,-0.309033 0,-0.3090331 -0.4036237,-0.3090331 H 7.3314874 Z M 6.4715964,2.3289334 h 1.2810623 q 0.4562674,0 0.6931771,0.2116665 0.236909,0.2116665 0.236909,0.6095995 0,0.2412998 -0.09213,0.4021663 -0.08775,0.1566332 -0.2720057,0.2666998 0.1842617,0.033867 0.3114907,0.1058332 0.131616,0.067733 0.210586,0.1693332 0.08335,0.1016 0.1184537,0.2285998 0.0351,0.1269999 0.0351,0.2709331 0,0.2243665 -0.08335,0.397933 -0.07897,0.1735666 -0.2281337,0.2920998 -0.144778,0.1185332 -0.3553637,0.1777999 -0.210586,0.059267 -0.473816,0.059267 H 6.4715964 Z M 9.1609455,4.068832 H 10.420078 V 4.7080648 H 9.1609455 Z M 11.626562,2.3289334 V 5.5208641 H 10.76667 V 2.3289334 Z"
       id="text13"
       aria-label="PB-I" />
    <path
       style="-inkscape-font-specification:'Futura Bold';fill:#f9f9f9;stroke-width:1.62882;stroke-linecap:round;stroke-linejoin:round;stroke-dashoffset:0.604724;paint-order:stroke fill markers"
       d="m 4.8861345,4.3228322 h 0.2851681 q 0.4738177,0 0.4738177,-0.397933 0,-0.397933 -0.4738177,-0.397933 H 4.8861345 Z m 0,1.7271986 H 4.0262431 V 2.8581001 h 1.3688067 q 0.5571745,0 0.851117,0.2793998 0.2983296,0.2793998 0.2983296,0.7873993 0,0.5079996 -0.2983296,0.7873994 -0.2939425,0.2793997 -0.851117,0.2793997 H 4.8861345 Z M 7.8606541,5.4065646 h 0.1886502 q 0.3246525,0 0.4650415,-0.080433 0.140391,-0.080433 0.140391,-0.2582331 0,-0.1777999 -0.140391,-0.2582332 -0.140389,-0.080433 -0.4650415,-0.080433 H 7.8606541 Z m 0,-1.2953989 h 0.157939 q 0.4036237,0 0.4036237,-0.309033 0,-0.3090331 -0.4036237,-0.3090331 H 7.8606541 Z M 7.0007631,2.8581001 h 1.2810623 q 0.4562674,0 0.6931771,0.2116665 0.236909,0.2116665 0.236909,0.6095995 0,0.2412998 -0.09213,0.4021663 -0.08775,0.1566332 -0.2720057,0.2666998 0.1842617,0.033867 0.3114907,0.1058332 0.131616,0.067733 0.210586,0.1693332 0.08335,0.1016 0.1184537,0.2285998 0.0351,0.1269999 0.0351,0.2709331 0,0.2243665 -0.08335,0.397933 -0.07897,0.1735666 -0.2281337,0.2920998 -0.144778,0.1185332 -0.3553637,0.1777999 -0.210586,0.059267 -0.473816,0.059267 H 7.0007631 Z M 9.6901122,4.5979987 H 10.949245 V 5.2372315 H 9.6901122 Z M 12.155729,2.8581001 V 6.0500308 H 11.295837 V 2.8581001 Z"
       id="path21"
       aria-label="PB-I" />
  </g>
  <g
     inkscape:groupmode="layer"
     id="layer2-2"
     inkscape:label="PB-O Label"
     style="display:inline"
     transform="translate(-0.09676119,1.7660121)">
    <path
       style="-inkscape-font-specification:'Futura Bold';display:none;fill:#b3b3b3;stroke-width:1.6;stroke-linecap:round;stroke-linejoin:round;stroke-dashoffset:0.604724;paint-order:stroke fill markers"
       d="m 2.2481836,6.4375894 q 0,0.1904997 0.071967,0.3513664 0.071967,0.1608665 0.1947332,0.2793997 0.1227666,0.1185333 0.2836331,0.1862665 0.1650998,0.0635 0.347133,0.0635 0.1820332,0 0.3428997,-0.0635 Q 3.6536495,7.186889 3.776416,7.0683555 3.9034159,6.9498223 3.9753825,6.7889558 q 0.071967,-0.1608667 0.071967,-0.3513664 0,-0.1904998 -0.071967,-0.3513664 Q 3.9034155,5.9253564 3.7764156,5.8068232 3.6536491,5.68829 3.4885492,5.6247901 3.3276827,5.5570567 3.1456495,5.5570567 q -0.1820332,0 -0.347133,0.067733 -0.1608665,0.0635 -0.2836331,0.1820332 -0.1227665,0.1185335 -0.1947331,0.2794 -0.071967,0.1608666 -0.071967,0.3513665 z m -0.8678326,0 q 0,-0.3555997 0.1312332,-0.6603994 Q 1.6428175,5.4681569 1.8756506,5.239557 2.1084838,5.0109573 2.4302168,4.8839573 2.7561832,4.7527242 3.1456495,4.7527242 q 0.385233,0 0.7111994,0.1312331 0.3259664,0.127 0.5587995,0.3555997 0.2370665,0.2285998 0.3682997,0.537633 0.1312333,0.3047997 0.1312333,0.6603994 0,0.3555997 -0.1312333,0.6646327 Q 4.6527149,7.4070219 4.4156484,7.6356216 4.1828153,7.8642215 3.8568489,7.9954548 3.5308825,8.1224547 3.1456495,8.1224547 q -0.3894663,0 -0.7154327,-0.127 Q 2.1084838,7.8642215 1.8756506,7.6356216 1.6428175,7.4070219 1.5115842,7.1022221 1.380351,6.7931891 1.380351,6.4375894 Z M 6.1343771,5.8618566 v 1.2234323 q 0,0.4021663 0.3894663,0.4021663 0.3894664,0 0.3894664,-0.4021663 V 5.8618566 h 0.7662327 v 1.3715988 q 0,0.4402663 -0.2920998,0.6603995 Q 7.0995763,8.113988 6.5238434,8.113988 5.9481106,8.113988 5.6560108,7.8938549 5.3681444,7.6737216 5.3681444,7.2334553 V 5.8618566 Z M 9.0553769,6.5010893 V 8.0335546 H 8.2891442 V 6.5010893 H 8.0351445 V 5.8618566 H 8.2891442 V 5.2099237 h 0.7662327 v 0.6519328 h 0.436033 v 0.6392328 z m 2.4553291,0.4529662 q 0,-0.1015999 -0.0381,-0.1904998 -0.03387,-0.093133 -0.1016,-0.1608665 -0.06773,-0.067733 -0.160867,-0.1058333 -0.0889,-0.042333 -0.194733,-0.042333 -0.1016,0 -0.1905,0.0381 -0.0889,0.0381 -0.156633,0.1058332 -0.0635,0.067733 -0.105833,0.1608666 -0.0381,0.0889 -0.0381,0.1904998 0,0.1015999 0.0381,0.1904999 0.0381,0.0889 0.105833,0.1566332 0.06773,0.0635 0.156633,0.1058332 0.09313,0.0381 0.194733,0.0381 0.1016,0 0.1905,-0.0381 0.0889,-0.0381 0.1524,-0.1058332 0.06773,-0.067733 0.105833,-0.1566332 0.04233,-0.0889 0.04233,-0.1862669 z m -0.9652,2.1632316 H 9.7792734 V 5.8618566 h 0.7662326 v 0.2412998 q 0.245534,-0.3090331 0.668867,-0.3090331 0.232833,0 0.431799,0.093133 0.2032,0.0889 0.351367,0.2455332 0.148166,0.1566332 0.2286,0.3682997 0.08467,0.2116664 0.08467,0.4529661 0,0.2412998 -0.08467,0.448733 -0.08043,0.2074332 -0.2286,0.3640664 -0.143934,0.1566332 -0.3429,0.2455332 -0.198967,0.0889 -0.4318,0.0889 -0.406399,0 -0.677333,-0.2793998 z m 2.967565,-3.2554305 v 1.2234323 q 0,0.4021663 0.389467,0.4021663 0.389466,0 0.389466,-0.4021663 V 5.8618566 h 0.766233 v 1.3715988 q 0,0.4402663 -0.2921,0.6603995 -0.287867,0.2201331 -0.863599,0.2201331 -0.575733,0 -0.867833,-0.2201331 Q 12.746838,7.6737216 12.746838,7.2334553 V 5.8618566 Z m 2.921001,0.6392327 V 8.0335546 H 15.667839 V 6.5010893 h -0.254 V 5.8618566 h 0.254 V 5.2099237 h 0.766233 v 0.6519328 h 0.436033 v 0.6392328 z m 2.184391,-0.080433 q -0.211667,-0.1100666 -0.414867,-0.1100666 -0.105833,0 -0.173566,0.042333 -0.0635,0.042333 -0.0635,0.1142999 0,0.0381 0.0085,0.0635 0.0127,0.021167 0.04657,0.042333 0.0381,0.021167 0.105833,0.0381 0.07197,0.016933 0.186267,0.042333 0.3175,0.0635 0.474133,0.2285998 0.156633,0.1608666 0.156633,0.4148664 0,0.1904998 -0.0762,0.3428997 -0.0762,0.1523998 -0.211666,0.2582331 -0.135467,0.1015999 -0.325967,0.1566332 -0.1905,0.059267 -0.419099,0.059267 -0.440267,0 -0.867833,-0.2497665 l 0.2794,-0.5418662 q 0.321733,0.2201332 0.609599,0.2201332 0.105833,0 0.173567,-0.046567 0.06773,-0.046567 0.06773,-0.1185333 0,-0.042333 -0.0127,-0.067733 -0.0085,-0.029633 -0.04233,-0.0508 -0.03387,-0.0254 -0.1016,-0.042333 -0.0635,-0.021167 -0.169333,-0.042333 -0.3556,-0.071967 -0.499533,-0.2116665 -0.1397,-0.1439332 -0.1397,-0.3936997 0,-0.1820331 0.06773,-0.3259664 0.06773,-0.1481665 0.194733,-0.2497664 0.127,-0.1015999 0.3048,-0.1566332 0.182033,-0.055033 0.402166,-0.055033 0.359833,0 0.6985,0.1396999 z"
       id="text18"
       aria-label="Outputs"
       transform="translate(-0.72560817,-0.27157415)" />
    <path
       d="m 2.0517421,6.6951819 q 0,0.1904998 0.071967,0.3513664 0.071967,0.1608665 0.1947332,0.2793997 0.1227666,0.1185333 0.2836331,0.1862666 0.1650999,0.0635 0.347133,0.0635 0.1820332,0 0.3428998,-0.0635 0.1650994,-0.067733 0.287866,-0.1862666 0.1269999,-0.1185332 0.1989665,-0.2793997 0.071967,-0.1608666 0.071967,-0.3513664 0,-0.1904998 -0.071967,-0.3513664 Q 3.7069741,6.182949 3.5799742,6.0644158 3.4572076,5.9458825 3.2921078,5.8823826 3.1312412,5.8146493 2.949208,5.8146493 q -0.1820331,0 -0.347133,0.067733 -0.1608665,0.0635 -0.2836331,0.1820332 -0.1227665,0.1185335 -0.1947332,0.2794 -0.071967,0.1608666 -0.071967,0.3513664 z m -0.8678326,0 q 0,-0.3555997 0.1312332,-0.6603994 Q 1.4463759,5.7257494 1.6792091,5.4971496 1.9120423,5.2685498 2.2337753,5.1415499 2.5597417,5.0103167 2.949208,5.0103167 q 0.3852331,0 0.7111995,0.1312332 0.3259663,0.1269999 0.5587995,0.3555997 0.2370664,0.2285998 0.3682997,0.5376329 0.1312332,0.3047997 0.1312332,0.6603994 0,0.3555997 -0.1312332,0.6646328 Q 4.4562734,7.6646144 4.219207,7.8932142 3.9863738,8.121814 3.6604075,8.2530473 3.3344411,8.3800472 2.949208,8.3800472 q -0.3894663,0 -0.7154327,-0.1269999 Q 1.9120423,8.121814 1.6792091,7.8932142 1.4463759,7.6646144 1.3151427,7.3598147 1.1839095,7.0507816 1.1839095,6.6951819 Z M 5.9379356,6.1194491 v 1.2234323 q 0,0.4021663 0.3894664,0.4021663 0.3894663,0 0.3894663,-0.4021663 V 6.1194491 H 7.483101 v 1.3715988 q 0,0.4402663 -0.2920998,0.6603994 -0.2878664,0.2201332 -0.8635992,0.2201332 -0.5757329,0 -0.8678326,-0.2201332 Q 5.1717029,7.9313142 5.1717029,7.4910479 V 6.1194491 Z M 8.8589355,6.7586819 V 8.2911472 H 8.0927028 V 6.7586819 H 7.838703 V 6.1194491 H 8.0927028 V 5.4675163 h 0.7662327 v 0.6519328 h 0.4360329 v 0.6392328 z m 2.4553285,0.4529662 q 0,-0.1015999 -0.0381,-0.1904998 -0.03387,-0.093133 -0.1016,-0.1608665 -0.06773,-0.067733 -0.160866,-0.1058333 -0.0889,-0.042333 -0.194733,-0.042333 -0.1016,0 -0.1905,0.0381 -0.0889,0.0381 -0.156634,0.1058332 -0.0635,0.067733 -0.105833,0.1608666 -0.0381,0.0889 -0.0381,0.1904998 0,0.1015999 0.0381,0.1904998 0.0381,0.0889 0.105833,0.1566333 0.06773,0.0635 0.156634,0.1058332 0.09313,0.0381 0.194733,0.0381 0.1016,0 0.1905,-0.0381 0.0889,-0.0381 0.1524,-0.1058332 0.06773,-0.067733 0.105833,-0.1566333 0.04233,-0.0889 0.04233,-0.1862665 z M 10.349065,9.3748797 H 9.5828319 V 6.1194491 h 0.7662331 v 0.2412998 q 0.245533,-0.3090331 0.668866,-0.3090331 0.232833,0 0.4318,0.093133 0.203199,0.0889 0.351366,0.2455332 0.148167,0.1566332 0.2286,0.3682997 0.08467,0.2116664 0.08467,0.4529662 0,0.2412998 -0.08467,0.448733 -0.08043,0.2074332 -0.2286,0.3640664 -0.143933,0.1566332 -0.3429,0.2455331 -0.198966,0.0889 -0.431799,0.0889 -0.4064,0 -0.677333,-0.2793998 z M 13.31663,6.1194491 v 1.2234323 q 0,0.4021663 0.389466,0.4021663 0.389466,0 0.389466,-0.4021663 V 6.1194491 h 0.766233 v 1.3715988 q 0,0.4402663 -0.2921,0.6603994 -0.287866,0.2201332 -0.863599,0.2201332 -0.575733,0 -0.867833,-0.2201332 Q 12.550397,7.9313142 12.550397,7.4910479 V 6.1194491 Z m 2.921,0.6392328 V 8.2911472 H 15.471398 V 6.7586819 h -0.254 V 6.1194491 h 0.254 V 5.4675163 h 0.766232 v 0.6519328 h 0.436033 v 0.6392328 z m 2.184391,-0.080433 Q 18.210354,6.568182 18.007155,6.568182 q -0.105834,0 -0.173567,0.042333 -0.0635,0.042333 -0.0635,0.1142999 0,0.0381 0.0085,0.0635 0.0127,0.021167 0.04657,0.042333 0.0381,0.021167 0.105834,0.0381 0.07197,0.016933 0.186266,0.042333 0.3175,0.0635 0.474133,0.2285998 0.156633,0.1608666 0.156633,0.4148664 0,0.1904998 -0.0762,0.3428997 -0.0762,0.1523998 -0.211666,0.2582331 -0.135467,0.1015999 -0.325966,0.1566332 -0.1905,0.059267 -0.4191,0.059267 -0.440266,0 -0.867833,-0.2497665 l 0.2794,-0.5418662 q 0.321733,0.2201332 0.6096,0.2201332 0.105833,0 0.173566,-0.046567 0.06773,-0.046567 0.06773,-0.1185333 0,-0.042333 -0.0127,-0.067733 -0.0085,-0.029633 -0.04233,-0.0508 -0.03387,-0.0254 -0.1016,-0.042333 -0.0635,-0.021167 -0.169333,-0.042333 -0.3556,-0.071967 -0.499533,-0.2116665 -0.1397,-0.1439332 -0.1397,-0.3936997 0,-0.1820331 0.06773,-0.3259664 0.06773,-0.1481665 0.194734,-0.2497664 0.126999,-0.1015999 0.304799,-0.1566332 0.182033,-0.055033 0.402167,-0.055033 0.359833,0 0.698499,0.1396999 z"
       id="text19"
       style="-inkscape-font-specification:'Futura Bold';display:none;fill:#999999;stroke-width:1.6;stroke-linecap:round;stroke-linejoin:round;stroke-dashoffset:0.604724;paint-order:stroke fill markers"
       aria-label="Outputs" />
    <text
       xml:space="preserve"
       style="font-style:normal;font-variant:normal;font-weight:bold;font-stretch:normal;font-size:4.28896px;font-family:Futura;-inkscape-font-specification:'Futura Bold';display:none;fill:#e6e6e6;fill-opacity:1;stroke:none;stroke-width:1.62103;stroke-linecap:round;stroke-linejoin:round;stroke-dasharray:none;stroke-dashoffset:0.604724;stroke-opacity:1;paint-order:stroke fill markers"
       x="4.2049484"
       y="5.3218927"
       id="text15"
       transform="scale(1.0131418,0.98702867)"><tspan
         sodipodi:role="line"
         id="tspan14"
         style="fill:#e6e6e6;stroke-width:1.62103"
         x="0"
         y="0">PB-O</tspan></text>
    <text
       xml:space="preserve"
       style="font-style:normal;font-variant:normal;font-weight:bold;font-stretch:normal;font-size:4.23333px;font-family:Futura;-inkscape-font-specification:'Futura Bold';display:none;fill:#999999;fill-opacity:1;stroke:none;stroke-width:1.6;stroke-linecap:round;stroke-linejoin:round;stroke-dasharray:none;stroke-dashoffset:0.604724;stroke-opacity:1;paint-order:stroke fill markers"
       x="0.46424299"
       y="8.2911472"
       id="text16"><tspan
         sodipodi:role="line"
         id="tspan15"
         style="font-size:4.23333px;fill:#999999;stroke-width:1.6"
         x="0"
         y="0">Outputs</tspan></text>
    <path
       d="m 5.4551734,2.9964969 h 0.2824461 q 0.469295,0 0.469295,-0.3979327 0,-0.3979327 -0.469295,-0.3979327 H 5.4551734 Z m 0,1.7271972 H 4.6034898 V 1.5317659 H 5.959231 q 0.5518562,0 0.8429931,0.2793996 0.295482,0.2793995 0.295482,0.7873987 0,0.5079992 -0.295482,0.7873988 Q 6.5110872,3.6653624 5.959231,3.6653624 H 5.4551734 Z M 8.4013013,4.0802285 h 0.186849 q 0.321554,0 0.4606044,-0.080433 0.1390504,-0.080433 0.1390504,-0.258233 0,-0.1777997 -0.1390504,-0.2582328 -0.1390504,-0.080433 -0.4606044,-0.080433 h -0.186849 z m 0,-1.2953979 h 0.1564318 q 0.3997698,0 0.3997698,-0.3090329 0,-0.3090328 -0.3997698,-0.3090328 H 8.4013013 Z M 7.5496177,1.5317659 h 1.2688348 q 0.4519138,0 0.6865613,0.2116663 0.234647,0.2116664 0.234647,0.609599 0,0.2412997 -0.09125,0.402166 -0.08691,0.1566332 -0.26941,0.2666996 0.182504,0.033867 0.308518,0.1058332 0.13036,0.067733 0.208576,0.1693331 0.08256,0.1015999 0.1173232,0.2285996 0.03476,0.1269998 0.03476,0.2709329 0,0.2243663 -0.08256,0.3979327 Q 9.887408,4.3680947 9.739663,4.4866279 9.596268,4.605161 9.387692,4.6644275 9.1791166,4.7236945 8.9183971,4.7236945 H 7.5496177 Z M 10.2133,3.2716632 h 1.247108 V 3.9108954 H 10.2133 Z M 12.546742,3.12773 q 0,0.1904997 0.07387,0.3513661 0.07387,0.1608664 0.199885,0.2793996 0.126014,0.1185331 0.291137,0.1862663 0.169467,0.0635 0.356317,0.0635 0.186849,0 0.351971,-0.0635 0.169468,-0.067733 0.295482,-0.1862663 0.130359,-0.1185332 0.204231,-0.2793996 0.07387,-0.1608664 0.07387,-0.3513661 0,-0.1904997 -0.07387,-0.3513661 -0.07387,-0.1608664 -0.204233,-0.2793995 -0.126014,-0.1185332 -0.295482,-0.1820331 -0.165122,-0.067733 -0.351971,-0.067733 -0.18685,0 -0.356317,0.067733 -0.165123,0.0635 -0.291137,0.1820331 Q 12.694481,2.6154975 12.62061,2.7763639 12.54674,2.9372303 12.54674,3.12773 Z m -0.890792,0 q 0,-0.3555994 0.134705,-0.6603989 0.134706,-0.3090328 0.373699,-0.5376324 0.238992,-0.2285997 0.569236,-0.3555995 0.334591,-0.1312331 0.734361,-0.1312331 0.395424,0 0.730014,0.1312331 0.33459,0.1269998 0.573584,0.3555995 0.243337,0.2285996 0.378042,0.5376324 0.134706,0.3047995 0.134706,0.6603989 0,0.3555995 -0.134706,0.6646322 -0.134705,0.3047996 -0.378042,0.5333992 -0.238994,0.2285996 -0.573584,0.3598328 -0.33459,0.1269998 -0.730014,0.1269998 -0.39977,0 -0.734361,-0.1269998 Q 12.403346,4.554361 12.164354,4.3257614 11.925361,4.0971618 11.790655,3.7923622 11.65595,3.4833295 11.65595,3.12773 Z"
       id="path19"
       style="-inkscape-font-specification:'Futura Bold';display:none;fill:#ececec;stroke-width:1.62103;stroke-linecap:round;stroke-linejoin:round;stroke-dashoffset:0.604724;paint-order:stroke fill markers"
       aria-label="PB-O" />
    <path
       d="m 5.4551734,2.9964969 h 0.2824461 q 0.469295,0 0.469295,-0.3979328 0,-0.3979327 -0.469295,-0.3979327 H 5.4551734 Z m 0,1.7271971 H 4.6034898 V 1.5317659 H 5.959231 q 0.5518562,0 0.8429931,0.2793996 0.295482,0.2793995 0.295482,0.7873986 0,0.5079992 -0.295482,0.7873988 Q 6.5110872,3.6653623 5.959231,3.6653623 H 5.4551734 Z M 8.4013013,4.0802284 h 0.186849 q 0.321554,0 0.4606044,-0.080433 0.1390504,-0.080433 0.1390504,-0.258233 0,-0.1777996 -0.1390504,-0.2582328 -0.1390504,-0.080433 -0.4606044,-0.080433 h -0.186849 z m 0,-1.2953978 h 0.1564318 q 0.3997698,0 0.3997698,-0.309033 0,-0.3090327 -0.3997698,-0.3090327 H 8.4013013 Z M 7.5496177,1.5317659 h 1.2688348 q 0.4519138,0 0.6865608,0.2116663 0.234647,0.2116664 0.234647,0.6095989 0,0.2412997 -0.09125,0.4021661 -0.08691,0.1566332 -0.2694095,0.2666996 0.1825035,0.033867 0.3085175,0.1058332 0.13036,0.067733 0.208576,0.1693331 0.08256,0.1015999 0.1173227,0.2285996 0.03476,0.1269998 0.03476,0.2709329 0,0.2243662 -0.08256,0.3979327 Q 9.887407,4.3680947 9.739662,4.4866279 9.596267,4.6051609 9.3876915,4.6644274 9.1791161,4.7236944 8.9183966,4.7236944 H 7.5496177 Z m 2.6636813,1.7398972 h 1.247108 v 0.6392322 h -1.247108 z m 2.333442,-0.1439332 q 0,0.1904997 0.07387,0.3513661 0.07387,0.1608664 0.199885,0.2793996 0.126014,0.1185331 0.291137,0.1862663 0.169467,0.0635 0.356317,0.0635 0.186849,0 0.351971,-0.0635 0.169468,-0.067733 0.295482,-0.1862663 0.130359,-0.1185332 0.204231,-0.2793996 0.07387,-0.1608663 0.07387,-0.351366 0,-0.1904997 -0.07387,-0.3513661 -0.07387,-0.1608665 -0.204233,-0.2793996 -0.126014,-0.1185332 -0.295482,-0.1820331 -0.165122,-0.067733 -0.351971,-0.067733 -0.18685,0 -0.356317,0.067733 -0.165123,0.0635 -0.291137,0.1820331 -0.126014,0.1185331 -0.199885,0.2793995 -0.07387,0.1608664 -0.07387,0.3513661 z m -0.890792,0 q 0,-0.3555994 0.134705,-0.6603989 Q 11.92536,2.1582982 12.164353,1.9296986 12.403345,1.7010989 12.733589,1.5740991 13.06818,1.442866 13.46795,1.442866 q 0.395424,0 0.730014,0.1312331 0.33459,0.1269998 0.573584,0.3555995 0.243337,0.2285996 0.378042,0.5376324 0.134706,0.3047995 0.134706,0.6603989 0,0.3555995 -0.134706,0.6646322 -0.134705,0.3047996 -0.378042,0.5333992 -0.238994,0.2285996 -0.573584,0.3598328 -0.33459,0.1269999 -0.730014,0.1269999 -0.39977,0 -0.734361,-0.1269999 Q 12.403345,4.5543609 12.164353,4.3257613 11.92536,4.0971617 11.790654,3.7923621 11.655949,3.4833294 11.655949,3.1277299 Z"
       id="text17"
       style="-inkscape-font-specification:'Futura Bold';display:inline;fill:#b3b3b3;stroke-width:1.62103;stroke-linecap:round;stroke-linejoin:round;stroke-dashoffset:0.604724;paint-order:stroke fill markers"
       aria-label="PB-O" />
    <path
       d="m 5.9843401,3.5256636 h 0.2824461 q 0.469295,0 0.469295,-0.3979328 0,-0.3979327 -0.469295,-0.3979327 H 5.9843401 Z m 0,1.7271971 H 5.1326565 V 2.0609326 h 1.3557412 q 0.5518562,0 0.8429931,0.2793996 0.295482,0.2793995 0.295482,0.7873986 0,0.5079992 -0.295482,0.7873988 Q 7.0402539,4.194529 6.4883977,4.194529 H 5.9843401 Z M 8.930468,4.6093951 h 0.186849 q 0.321554,0 0.4606043,-0.080433 0.13905,-0.080433 0.13905,-0.258233 0,-0.1777996 -0.13905,-0.2582328 Q 9.438871,3.9320633 9.117317,3.9320633 H 8.930468 Z m 0,-1.2953978 h 0.1564318 q 0.3997695,0 0.3997695,-0.309033 0,-0.3090327 -0.3997695,-0.3090327 H 8.930468 Z M 8.0787844,2.0609326 h 1.2688348 q 0.4519141,0 0.6865608,0.2116663 0.234647,0.2116664 0.234647,0.6095989 0,0.2412997 -0.09125,0.4021661 -0.08691,0.1566332 -0.2694097,0.2666996 0.1825037,0.033867 0.3085177,0.1058332 0.13036,0.067733 0.208576,0.1693331 0.08256,0.1015999 0.117323,0.2285996 0.03476,0.1269998 0.03476,0.2709329 0,0.2243662 -0.08256,0.3979327 -0.07821,0.1735664 -0.225955,0.2920996 -0.143395,0.118533 -0.351971,0.1777995 -0.208576,0.059267 -0.469295,0.059267 H 8.0787844 Z m 2.6636816,1.7398972 h 1.247108 V 4.440062 h -1.247108 z m 2.333442,-0.1439332 q 0,0.1904997 0.07387,0.3513661 0.07387,0.1608664 0.199885,0.2793996 0.126014,0.1185331 0.291137,0.1862663 0.169467,0.0635 0.356317,0.0635 0.186849,0 0.351971,-0.0635 0.169468,-0.067733 0.295482,-0.1862663 0.130359,-0.1185332 0.204231,-0.2793996 0.07387,-0.1608663 0.07387,-0.351366 0,-0.1904997 -0.07387,-0.3513661 -0.07387,-0.1608665 -0.204233,-0.2793996 -0.126014,-0.1185332 -0.295482,-0.1820331 -0.165122,-0.067733 -0.351971,-0.067733 -0.18685,0 -0.356317,0.067733 -0.165123,0.0635 -0.291137,0.1820331 -0.126014,0.1185331 -0.199885,0.2793995 -0.07387,0.1608664 -0.07387,0.3513661 z m -0.890792,0 q 0,-0.3555994 0.134705,-0.6603989 0.134706,-0.3090328 0.373699,-0.5376324 0.238992,-0.2285997 0.569236,-0.3555995 0.334591,-0.1312331 0.734361,-0.1312331 0.395424,0 0.730014,0.1312331 0.33459,0.1269998 0.573584,0.3555995 0.243337,0.2285996 0.378042,0.5376324 0.134706,0.3047995 0.134706,0.6603989 0,0.3555995 -0.134706,0.6646322 -0.134705,0.3047996 -0.378042,0.5333992 -0.238994,0.2285996 -0.573584,0.3598328 -0.33459,0.1269999 -0.730014,0.1269999 -0.39977,0 -0.734361,-0.1269999 Q 12.932512,5.0835276 12.69352,4.854928 12.454527,4.6263284 12.319821,4.3215288 12.185116,4.0124961 12.185116,3.6568966 Z"
       id="path20"
       style="-inkscape-font-specification:'Futura Bold';display:inline;fill:#f9f9f9;stroke-width:1.62103;stroke-linecap:round;stroke-linejoin:round;stroke-dashoffset:0.604724;paint-order:stroke fill markers"
       aria-label="PB-O" />
  </g>
  <g
     inkscape:groupmode="layer"
     id="layer4"
     inkscape:label="Logo"
     style="display:inline">
    <path
       d="m 16.38037,125.21601 q 0.15193,0.26315 0.07298,0.49849 -0.0776,0.23455 -0.347465,0.39036 -0.06444,0.0372 -0.178852,0.0871 -0.113607,0.0513 -0.195408,0.077 l -0.1434,-0.24837 0.01477,-0.009 q 0.0659,-0.013 0.158102,-0.0393 0.09221,-0.0263 0.176789,-0.0752 0.123519,-0.0713 0.179719,-0.1414 0.05755,-0.0709 0.06225,-0.14333 0.0053,-0.0746 -0.03032,-0.15793 -0.03421,-0.0841 -0.09313,-0.18611 l -0.673605,-1.16672 -0.422917,0.24417 -0.12247,-0.21212 0.688751,-0.39765 z m 1.969596,-1.26424 q 0.08604,0.14902 0.09554,0.2957 0.0095,0.14668 -0.04319,0.27556 -0.06162,0.15372 -0.17552,0.2696 -0.112559,0.1151 -0.320661,0.23525 l -0.708889,0.40927 -1.15419,-1.99911 0.592084,-0.34184 q 0.218842,-0.12635 0.336892,-0.17303 0.11805,-0.0467 0.246852,-0.053 0.143443,-0.006 0.245814,0.0568 0.10161,0.0613 0.17447,0.18747 0.08217,0.14232 0.06781,0.28487 -0.01514,0.14121 -0.101094,0.27139 l 0.0062,0.0107 q 0.226782,-0.0754 0.422633,-0.006 0.195096,0.0682 0.315246,0.27627 z m -0.967209,-0.64276 q -0.04185,-0.0725 -0.09471,-0.10821 -0.05287,-0.0358 -0.124373,-0.0356 -0.08405,1.5e-4 -0.178656,0.044 -0.0954,0.0425 -0.22832,0.11924 l -0.316852,0.18293 0.33331,0.57731 0.343704,-0.19844 q 0.124861,-0.0721 0.191753,-0.12676 0.0661,-0.0561 0.105945,-0.13276 0.03985,-0.0767 0.02893,-0.15453 -0.01035,-0.0799 -0.06074,-0.16723 z m 0.696834,0.81318 q -0.06977,-0.12084 -0.147097,-0.17106 -0.07735,-0.0503 -0.201338,-0.0449 -0.08379,0.004 -0.181884,0.0477 -0.0975,0.042 -0.22907,0.11794 l -0.417545,0.24107 0.429425,0.74379 0.351759,-0.20309 q 0.174537,-0.10077 0.275873,-0.1826 0.100585,-0.0831 0.143842,-0.17254 0.04494,-0.0958 0.04111,-0.18305 -0.0038,-0.0873 -0.06509,-0.19335 z"
       id="text3"
       style="font-size:3.175px;display:inline;fill:#7b78a6;fill-opacity:1;stroke-width:0.264583"
       aria-label="JB" />
  </g>
  <g
     inkscape:groupmode="layer"
     id="layer5"
     inkscape:label="Output Outlines"
     transform="translate(-0.62923729,-7.0072739)"
     style="display:inline">
    <rect
       style="display:inline;fill:#666666;fill-opacity:1;stroke:#686868;stroke-width:1.15566;stroke-linecap:round;stroke-linejoin:round;stroke-dasharray:none;stroke-dashoffset:0.16;stroke-opacity:1;paint-order:stroke fill markers"
       id="rect10"
       width="12.073475"
       height="6.7818389"
       x="4.6721668"
       y="21.872604"
       inkscape:label="rect10" />
    <rect
       style="display:inline;fill:#666666;fill-opacity:1;stroke:#686868;stroke-width:1.15569;stroke-linecap:round;stroke-linejoin:round;stroke-dasharray:none;stroke-dashoffset:0.16;stroke-opacity:1;paint-order:stroke fill markers"
       id="rect10-82"
       width="12.073475"
       height="6.7818098"
       x="4.6466651"
       y="36.160122"
       inkscape:label="rect10" />
    <rect
       style="display:inline;fill:#666666;fill-opacity:1;stroke:#686868;stroke-width:1.15569;stroke-linecap:round;stroke-linejoin:round;stroke-dasharray:none;stroke-dashoffset:0.16;stroke-opacity:1;paint-order:stroke fill markers"
       id="rect10-82-3"
       width="12.073475"
       height="6.7818098"
       x="4.6752849"
       y="50.315327"
       inkscape:label="rect10" />
    <rect
       style="display:inline;fill:#666666;fill-opacity:1;stroke:#686868;stroke-width:1.15569;stroke-linecap:round;stroke-linejoin:round;stroke-dasharray:none;stroke-dashoffset:0.16;stroke-opacity:1;paint-order:stroke fill markers"
       id="rect10-82-8"
       width="12.073475"
       height="6.7818098"
       x="4.7111077"
       y="64.470535"
       inkscape:label="rect10" />
    <rect
       style="display:inline;fill:#666666;fill-opacity:1;stroke:#686868;stroke-width:1.15569;stroke-linecap:round;stroke-linejoin:round;stroke-dasharray:none;stroke-dashoffset:0.16;stroke-opacity:1;paint-order:stroke fill markers"
       id="rect10-82-3-5"
       width="12.073475"
       height="6.7818098"
       x="4.7397275"
       y="78.758034"
       inkscape:label="rect10" />
    <rect
       style="display:inline;fill:#666666;fill-opacity:1;stroke:#686868;stroke-width:1.15569;stroke-linecap:round;stroke-linejoin:round;stroke-dasharray:none;stroke-dashoffset:0.16;stroke-opacity:1;paint-order:stroke fill markers"
       id="rect10-82-3-7"
       width="12.073475"
       height="6.7818098"
       x="4.8540106"
       y="93.045532"
       inkscape:label="rect10" />
    <rect
       style="display:inline;fill:#666666;fill-opacity:1;stroke:#686868;stroke-width:1.15569;stroke-linecap:round;stroke-linejoin:round;stroke-dasharray:none;stroke-dashoffset:0.16;stroke-opacity:1;paint-order:stroke fill markers"
       id="rect10-82-8-1"
       width="12.073475"
       height="6.7818098"
       x="4.8898335"
       y="107.26689"
       inkscape:label="rect10" />
    <rect
       style="display:inline;fill:#666666;fill-opacity:1;stroke:#686868;stroke-width:1.15569;stroke-linecap:round;stroke-linejoin:round;stroke-dasharray:none;stroke-dashoffset:0.16;stroke-opacity:1;paint-order:stroke fill markers"
       id="rect10-82-3-5-8"
       width="12.073475"
       height="6.7818098"
       x="4.9184532"
       y="121.48824"
       inkscape:label="rect10" />
  </g>
  <g
     inkscape:groupmode="layer"
     id="layer3"
     inkscape:label="Guides"
     style="display:none" />
  <g
     inkscape:groupmode="layer"
     id="g18"
     inkscape:label="PB-O Label"
     style="display:inline"
     transform="translate(0.72560817,0.27157415)" />
</svg>
